<svg width="48" height="48" viewBox="0 0 48 48" fill="none" xmlns="http://www.w3.org/2000/svg">
<rect width="48" height="48" rx="24" fill="#6DE5D2" fill-opacity="0.1"/>
<circle cx="24" cy="24" r="16" fill="#6DE5D2" fill-opacity="0.2"/>
<g clip-path="url(#clip0_5083_32204)">
<path d="M23.4998 32.3327C18.8973 32.3327 15.1665 28.6018 15.1665 23.9993C15.1665 19.3968 18.8973 15.666 23.4998 15.666C28.1023 15.666 31.8332 19.3968 31.8332 23.9993C31.8332 28.6018 28.1023 32.3327 23.4998 32.3327ZM23.4998 30.666C25.2679 30.666 26.9636 29.9636 28.2139 28.7134C29.4641 27.4632 30.1665 25.7675 30.1665 23.9993C30.1665 22.2312 29.4641 20.5355 28.2139 19.2853C26.9636 18.0351 25.2679 17.3327 23.4998 17.3327C21.7317 17.3327 20.036 18.0351 18.7858 19.2853C17.5355 20.5355 16.8332 22.2312 16.8332 23.9993C16.8332 25.7675 17.5355 27.4632 18.7858 28.7134C20.036 29.9636 21.7317 30.666 23.4998 30.666Z" fill="#6DE5D2"/>
<path d="M21 24.4L22.8182 26L26 22" stroke="#6DE5D2" stroke-width="1.5" stroke-linecap="square" stroke-linejoin="round"/>
</g>
<defs>
<clipPath id="clip0_5083_32204">
<rect width="20" height="20" fill="white" transform="translate(13.5 14)"/>
</clipPath>
</defs>
</svg>
